<svg width="410.501" height="72.503" xmlns="http://www.w3.org/2000/svg">
  <path d="M12.2 35.102v7.5H11q.8-5.1 3.35-8.75 2.55-3.65 6.55-5.6a19.454 19.454 0 0 1 7.094-1.882 23.433 23.433 0 0 1 1.806-.068 21.803 21.803 0 0 1 6.337.892 18.842 18.842 0 0 1 4.463 2.008q4.7 2.9 7.4 8t2.7 11.7a26.81 26.81 0 0 1-.933 7.191 22.908 22.908 0 0 1-2.017 4.959q-2.95 5.35-8.2 8.4a22.499 22.499 0 0 1-8.6 2.834 28.517 28.517 0 0 1-3.55.216 30.413 30.413 0 0 1-7.302-.838 23.391 23.391 0 0 1-7.548-3.312q-6.15-4.15-9.35-11.95Q.372 49.508.044 40.037A73.116 73.116 0 0 1 0 37.502a67.364 67.364 0 0 1 .451-7.987q.494-4.138 1.532-7.732a41.431 41.431 0 0 1 .067-.231Q4.1 14.602 8 9.802q3.9-4.8 9.55-7.3T30.3.002a30.837 30.837 0 0 1 7.674.997 35.178 35.178 0 0 1 1.276.353q4.55 1.35 8.55 4.05a5.378 5.378 0 0 1 1.207 1.009 4.364 4.364 0 0 1 .893 1.591q.294.941.294 1.865a5.816 5.816 0 0 1-.144 1.285q-.35 1.55-1.4 2.7-1.05 1.15-2.65 1.4a3.899 3.899 0 0 1-.603.046q-1.175 0-2.501-.68a8.856 8.856 0 0 1-.396-.216q-3.131-1.842-5.923-2.666a18.746 18.746 0 0 0-.477-.134q-3-.8-6-.8a20.722 20.722 0 0 0-4.573.48 15.255 15.255 0 0 0-5.227 2.22 14.943 14.943 0 0 0-4.409 4.704 20.539 20.539 0 0 0-1.641 3.396q-2.05 5.4-2.05 13.5Zm72.6 37.4q-12.5 0-19.1-9.45-6.6-9.45-6.6-26.95 0-9.265 1.819-16.218a39.884 39.884 0 0 1 1.131-3.632 30.55 30.55 0 0 1 2.923-5.99 22.091 22.091 0 0 1 5.777-6.16Q76.5.002 84.8.002a27.395 27.395 0 0 1 8.112 1.137 20.781 20.781 0 0 1 11.038 8.063q4.679 6.572 6.016 17.43a76.882 76.882 0 0 1 .534 9.37 77.294 77.294 0 0 1-.468 8.759q-.707 6.188-2.482 11.091a31.842 31.842 0 0 1-2.946 6.131 22.943 22.943 0 0 1-5.704 6.269q-5.7 4.25-14.1 4.25Zm60 0q-12.5 0-19.1-9.45-6.6-9.45-6.6-26.95 0-9.265 1.819-16.218a39.884 39.884 0 0 1 1.131-3.632 30.55 30.55 0 0 1 2.923-5.99 22.091 22.091 0 0 1 5.777-6.16q5.75-4.1 14.05-4.1a27.395 27.395 0 0 1 8.112 1.137 20.781 20.781 0 0 1 11.038 8.063q4.679 6.572 6.016 17.43a76.882 76.882 0 0 1 .534 9.37 77.294 77.294 0 0 1-.468 8.759q-.707 6.188-2.482 11.091a31.842 31.842 0 0 1-2.946 6.131 22.943 22.943 0 0 1-5.704 6.269q-5.7 4.25-14.1 4.25Zm60 0q-12.5 0-19.1-9.45-6.6-9.45-6.6-26.95 0-9.265 1.819-16.218a39.884 39.884 0 0 1 1.131-3.632 30.55 30.55 0 0 1 2.923-5.99 22.091 22.091 0 0 1 5.777-6.16q5.75-4.1 14.05-4.1a27.395 27.395 0 0 1 8.112 1.137 20.781 20.781 0 0 1 11.038 8.063q4.679 6.572 6.016 17.43a76.882 76.882 0 0 1 .534 9.37 77.294 77.294 0 0 1-.468 8.759q-.707 6.188-2.482 11.091a31.842 31.842 0 0 1-2.946 6.131 22.943 22.943 0 0 1-5.704 6.269q-5.7 4.25-14.1 4.25Zm60 0q-12.5 0-19.1-9.45-6.6-9.45-6.6-26.95 0-9.265 1.819-16.218a39.884 39.884 0 0 1 1.131-3.632 30.55 30.55 0 0 1 2.923-5.99 22.091 22.091 0 0 1 5.777-6.16q5.75-4.1 14.05-4.1a27.395 27.395 0 0 1 8.112 1.137 20.781 20.781 0 0 1 11.038 8.063q4.679 6.572 6.016 17.43a76.882 76.882 0 0 1 .534 9.37 77.294 77.294 0 0 1-.468 8.759q-.707 6.188-2.482 11.091a31.842 31.842 0 0 1-2.946 6.131 22.943 22.943 0 0 1-5.704 6.269q-5.7 4.25-14.1 4.25Zm60 0q-12.5 0-19.1-9.45-6.6-9.45-6.6-26.95 0-9.265 1.819-16.218a39.884 39.884 0 0 1 1.131-3.632 30.55 30.55 0 0 1 2.923-5.99 22.091 22.091 0 0 1 5.777-6.16q5.75-4.1 14.05-4.1a27.395 27.395 0 0 1 8.112 1.137 20.781 20.781 0 0 1 11.038 8.063q4.679 6.572 6.016 17.43a76.882 76.882 0 0 1 .534 9.37 77.294 77.294 0 0 1-.468 8.759q-.707 6.188-2.482 11.091a31.842 31.842 0 0 1-2.946 6.131 22.943 22.943 0 0 1-5.704 6.269q-5.7 4.25-14.1 4.25Zm60 0q-12.5 0-19.1-9.45-6.6-9.45-6.6-26.95 0-9.265 1.819-16.218a39.884 39.884 0 0 1 1.131-3.632 30.55 30.55 0 0 1 2.923-5.99 22.091 22.091 0 0 1 5.777-6.16q5.75-4.1 14.05-4.1a27.395 27.395 0 0 1 8.112 1.137 20.781 20.781 0 0 1 11.038 8.063q4.679 6.572 6.016 17.43a76.882 76.882 0 0 1 .534 9.37 77.294 77.294 0 0 1-.468 8.759q-.707 6.188-2.482 11.091a31.842 31.842 0 0 1-2.946 6.131 22.943 22.943 0 0 1-5.704 6.269q-5.7 4.25-14.1 4.25Zm-300-10.5a11.446 11.446 0 0 0 4.686-.924q3.358-1.488 5.364-5.376a22.624 22.624 0 0 0 1.71-4.615q1.197-4.555 1.464-11.144a97.597 97.597 0 0 0 .076-3.941 88.125 88.125 0 0 0-.229-6.601q-.485-6.436-1.998-10.549a17.964 17.964 0 0 0-1.023-2.3A12.284 12.284 0 0 0 92.074 13q-2.519-2.167-6.139-2.454a14.323 14.323 0 0 0-1.135-.044 11.613 11.613 0 0 0-4.673.904q-2.684 1.166-4.523 3.834a14.769 14.769 0 0 0-.804 1.312q-2.789 5.113-3.221 15.477a95.564 95.564 0 0 0-.079 3.973 86.635 86.635 0 0 0 .254 6.886q.532 6.648 2.181 10.895a18.784 18.784 0 0 0 .865 1.919 13.25 13.25 0 0 0 2.532 3.456q2.967 2.844 7.468 2.844Zm60 0a11.446 11.446 0 0 0 4.686-.924q3.358-1.488 5.364-5.376a22.624 22.624 0 0 0 1.71-4.615q1.197-4.555 1.464-11.144a97.597 97.597 0 0 0 .076-3.941 88.125 88.125 0 0 0-.229-6.601q-.485-6.436-1.998-10.549a17.964 17.964 0 0 0-1.023-2.3A12.284 12.284 0 0 0 152.074 13q-2.519-2.167-6.139-2.454a14.323 14.323 0 0 0-1.135-.044 11.613 11.613 0 0 0-4.673.904q-2.684 1.166-4.523 3.834a14.769 14.769 0 0 0-.804 1.312q-2.789 5.113-3.221 15.477a95.564 95.564 0 0 0-.079 3.973 86.635 86.635 0 0 0 .254 6.886q.532 6.648 2.181 10.895a18.784 18.784 0 0 0 .865 1.919 13.25 13.25 0 0 0 2.532 3.456q2.967 2.844 7.468 2.844Zm60 0a11.446 11.446 0 0 0 4.686-.924q3.358-1.488 5.364-5.376a22.624 22.624 0 0 0 1.71-4.615q1.197-4.555 1.464-11.144a97.597 97.597 0 0 0 .076-3.941 88.125 88.125 0 0 0-.229-6.601q-.485-6.436-1.998-10.549a17.964 17.964 0 0 0-1.023-2.3A12.284 12.284 0 0 0 212.074 13q-2.519-2.167-6.139-2.454a14.323 14.323 0 0 0-1.135-.044 11.613 11.613 0 0 0-4.673.904q-2.684 1.166-4.523 3.834a14.769 14.769 0 0 0-.804 1.312q-2.789 5.113-3.221 15.477a95.564 95.564 0 0 0-.079 3.973 86.635 86.635 0 0 0 .254 6.886q.532 6.648 2.181 10.895a18.784 18.784 0 0 0 .865 1.919 13.25 13.25 0 0 0 2.532 3.456q2.967 2.844 7.468 2.844Zm60 0a11.446 11.446 0 0 0 4.686-.924q3.358-1.488 5.364-5.376a22.624 22.624 0 0 0 1.71-4.615q1.197-4.555 1.464-11.144a97.597 97.597 0 0 0 .076-3.941 88.125 88.125 0 0 0-.229-6.601q-.485-6.436-1.998-10.549a17.964 17.964 0 0 0-1.023-2.3A12.284 12.284 0 0 0 272.074 13q-2.519-2.167-6.139-2.454a14.323 14.323 0 0 0-1.135-.044 11.613 11.613 0 0 0-4.673.904q-2.684 1.166-4.523 3.834a14.769 14.769 0 0 0-.804 1.312q-2.789 5.113-3.221 15.477a95.564 95.564 0 0 0-.079 3.973 86.635 86.635 0 0 0 .254 6.886q.532 6.648 2.181 10.895a18.784 18.784 0 0 0 .865 1.919 13.25 13.25 0 0 0 2.532 3.456q2.967 2.844 7.468 2.844Zm60 0a11.446 11.446 0 0 0 4.686-.924q3.358-1.488 5.364-5.376a22.624 22.624 0 0 0 1.71-4.615q1.197-4.555 1.464-11.144a97.597 97.597 0 0 0 .076-3.941 88.125 88.125 0 0 0-.229-6.601q-.485-6.436-1.998-10.549a17.964 17.964 0 0 0-1.023-2.3A12.284 12.284 0 0 0 332.074 13q-2.519-2.167-6.139-2.454a14.323 14.323 0 0 0-1.135-.044 11.613 11.613 0 0 0-4.673.904q-2.684 1.166-4.523 3.834a14.769 14.769 0 0 0-.804 1.312q-2.789 5.113-3.221 15.477a95.564 95.564 0 0 0-.079 3.973 86.635 86.635 0 0 0 .254 6.886q.532 6.648 2.181 10.895a18.784 18.784 0 0 0 .865 1.919 13.25 13.25 0 0 0 2.532 3.456q2.967 2.844 7.468 2.844Zm60 0a11.446 11.446 0 0 0 4.686-.924q3.358-1.488 5.364-5.376a22.624 22.624 0 0 0 1.71-4.615q1.197-4.555 1.464-11.144a97.597 97.597 0 0 0 .076-3.941 88.125 88.125 0 0 0-.229-6.601q-.485-6.436-1.998-10.549a17.964 17.964 0 0 0-1.023-2.3A12.284 12.284 0 0 0 392.074 13q-2.519-2.167-6.139-2.454a14.323 14.323 0 0 0-1.135-.044 11.613 11.613 0 0 0-4.673.904q-2.684 1.166-4.523 3.834a14.769 14.769 0 0 0-.804 1.312q-2.789 5.113-3.221 15.477a95.564 95.564 0 0 0-.079 3.973 86.635 86.635 0 0 0 .254 6.886q.532 6.648 2.181 10.895a18.784 18.784 0 0 0 .865 1.919 13.25 13.25 0 0 0 2.532 3.456q2.967 2.844 7.468 2.844Zm-358.1.3q3.6 0 6.35-1.6 2.75-1.6 4.25-4.55a13.744 13.744 0 0 0 1.354-4.458 17.425 17.425 0 0 0 .146-2.292 17.103 17.103 0 0 0-.329-3.437 12.931 12.931 0 0 0-1.171-3.363q-1.5-2.9-4.25-4.55a11.593 11.593 0 0 0-4.762-1.566 14.553 14.553 0 0 0-1.588-.084q-3.6 0-6.3 1.65-2.7 1.65-4.25 4.55-1.55 2.9-1.55 6.8a15.879 15.879 0 0 0 .431 3.771 12.996 12.996 0 0 0 1.119 2.979 11.567 11.567 0 0 0 2.675 3.418 10.921 10.921 0 0 0 1.575 1.132 11.41 11.41 0 0 0 4.347 1.473 14.655 14.655 0 0 0 1.953.127Z" vector-effect="non-scaling-stroke" stroke-linecap="round" fill-rule="evenodd" font-size="12" stroke="#000" stroke-width=".25mm"/>
</svg>
