<svg xmlns="http://www.w3.org/2000/svg" xml:space="preserve" width="800" height="800" viewBox="0 0 512 512"><path d="M431.684 252.936c-40.578-32.779-150.62-185.32-171.561-247.398C258.899 1.913 257.845 0 255.988 0c-1.832 0-2.894 1.913-4.11 5.538-20.958 62.078-130.984 214.619-171.57 247.398-1.053.843-1.946 2.44-1.946 3.064 0 .624.893 2.222 1.946 3.057 40.586 32.778 150.612 185.319 171.57 247.406 1.216 3.624 2.278 5.537 4.11 5.537 1.857 0 2.911-1.913 4.135-5.537 20.941-62.087 130.983-214.628 171.561-247.406 1.046-.835 1.954-2.432 1.954-3.057 0-.624-.908-2.222-1.954-3.064z" style="fill:#000"/></svg>